<?xml version="1.0" encoding="iso-8859-1"?>
<!-- Uploaded to: SVG Repo, www.svgrepo.com, Generator: SVG Repo Mixer Tools -->
<svg fill="#42d242" height="800px" width="800px" version="1.1" id="Layer_1" xmlns="http://www.w3.org/2000/svg" xmlns:xlink="http://www.w3.org/1999/xlink" 
	 viewBox="0 0 512 512" xml:space="preserve">
<g>
	<g>
		<g>
			<path d="M256.001,224.16c-61.699,0-111.896,50.197-111.896,111.896s50.197,111.896,111.896,111.896
				s111.896-50.196,111.896-111.896C367.898,274.357,317.7,224.16,256.001,224.16z M256.001,432.311
				c-53.075,0-96.253-43.178-96.253-96.253s43.178-96.253,96.253-96.253c53.073,0,96.253,43.178,96.253,96.253
				S309.076,432.311,256.001,432.311z"/>
			<path d="M256.001,256.184c-44.043,0-79.873,35.831-79.873,79.873c0,44.043,35.831,79.873,79.873,79.873
				s79.873-35.83,79.873-79.873S300.044,256.184,256.001,256.184z M256.001,400.287c-35.416,0-64.229-28.813-64.229-64.229
				s28.813-64.229,64.229-64.229s64.229,28.813,64.229,64.229S291.417,400.287,256.001,400.287z"/>
			<path d="M415.931,232.177V89.057C415.931,39.951,375.981,0,326.876,0h-141.75C136.021,0,96.07,39.951,96.07,89.057v143.121
				c-25.123,33.428-40.029,74.951-40.029,119.891c0,61.427,28.03,120.572,74.98,158.212l2.145,1.719h245.59l2.113-1.633
				c47.72-36.884,75.089-94.582,75.089-158.297C455.96,307.127,441.054,265.605,415.931,232.177z M111.714,89.057
				c0-40.479,32.932-73.413,73.412-73.413h141.75c40.479,0,73.412,32.933,73.412,73.413v63.053h-16.379V87.856
				c0-30.787-25.047-55.832-55.833-55.832h-144.15c-30.787,0-55.833,25.046-55.833,55.832v64.253h-16.379V89.057z M400.287,167.753
				v46.021c-5.17-5.392-10.64-10.492-16.379-15.28v-30.742H400.287z M368.265,87.855v98.827
				c-32.027-21.808-70.681-34.573-112.265-34.573c-41.584,0-80.238,12.764-112.265,34.573V87.855
				c0-22.16,18.029-40.188,40.189-40.188h144.149C350.236,47.667,368.265,65.696,368.265,87.855z M111.714,167.753h16.379v30.742
				c-5.739,4.788-11.209,9.888-16.379,15.28V167.753z M373.383,496.356H138.697c-6.127-5.071-11.881-10.555-17.259-16.38h269.735
				C385.657,485.815,379.727,491.294,373.383,496.356z M108.53,464.332c-23.52-31.947-36.844-71.549-36.844-112.264
				c0-101.631,82.684-184.315,184.315-184.315s184.315,82.684,184.315,184.315c0,41.939-12.792,81.003-36.021,112.264H108.53z"/>
			<polygon points="278.774,302.222 256.001,324.994 233.228,302.222 222.165,313.285 244.938,336.058 222.165,358.829 
				233.228,369.893 256.001,347.12 278.774,369.893 289.836,358.829 267.063,336.058 289.836,313.285 			"/>
		</g>
	</g>
</g>
</svg>